<svg width="18" height="18" viewBox="0 0 18 18" fill="none" xmlns="http://www.w3.org/2000/svg">
<path d="M14.625 5.62497L13.5075 6.74247L11.2575 4.49247L12.375 3.37497C12.69 3.05997 13.095 2.90997 13.5 2.90997C13.905 2.90997 14.31 3.05997 14.625 3.37497C15.2475 3.99747 15.2475 5.00247 14.625 5.62497Z" fill="white"/>
<path d="M12.9825 7.27502L4.875 15.375C4.2525 15.9975 3.2475 15.9975 2.625 15.375C2.0025 14.7525 2.0025 13.7475 2.625 13.125L10.7325 5.02502L12.9825 7.27502Z" fill="white"/>
<path d="M7.4625 2.62501L7.77 1.58251C7.8 1.48501 7.77 1.38001 7.7025 1.30501C7.635 1.23001 7.515 1.20001 7.4175 1.23001L6.375 1.53751L5.3325 1.23001C5.235 1.20001 5.13 1.23001 5.055 1.29751C4.98 1.37251 4.9575 1.47751 4.9875 1.57501L5.2875 2.62501L4.98 3.66751C4.95 3.76501 4.98 3.87001 5.0475 3.94501C5.1225 4.02001 5.2275 4.04251 5.325 4.01251L6.375 3.71251L7.4175 4.02001C7.4475 4.02751 7.47 4.03501 7.5 4.03501C7.575 4.03501 7.6425 4.00501 7.7025 3.95251C7.7775 3.87751 7.8 3.77251 7.77 3.67501L7.4625 2.62501Z" fill="white"/>
<path d="M4.4625 7.12501L4.77 6.08251C4.8 5.98501 4.77 5.88001 4.7025 5.80501C4.6275 5.73001 4.5225 5.70751 4.425 5.73751L3.375 6.03751L2.3325 5.73001C2.235 5.70001 2.13 5.73001 2.055 5.79751C1.98 5.87251 1.9575 5.97751 1.9875 6.07501L2.2875 7.12501L1.98 8.16751C1.95 8.26501 1.98 8.37001 2.0475 8.44501C2.1225 8.52001 2.2275 8.54251 2.325 8.51251L3.3675 8.20501L4.41 8.51251C4.4325 8.52001 4.4625 8.52001 4.4925 8.52001C4.5675 8.52001 4.635 8.49001 4.695 8.43751C4.77 8.36251 4.7925 8.25751 4.7625 8.16001L4.4625 7.12501Z" fill="white"/>
<path d="M15.7125 10.875L16.02 9.83253C16.05 9.73503 16.02 9.63003 15.9525 9.55503C15.8775 9.48003 15.7725 9.45753 15.675 9.48753L14.6325 9.79503L13.59 9.48753C13.4925 9.45753 13.3875 9.48753 13.3125 9.55503C13.2375 9.63003 13.215 9.73503 13.245 9.83253L13.5525 10.875L13.245 11.9175C13.215 12.015 13.245 12.12 13.3125 12.195C13.3875 12.27 13.4925 12.2925 13.59 12.2625L14.6325 11.955L15.675 12.2625C15.6975 12.27 15.7275 12.27 15.7575 12.27C15.8325 12.27 15.9 12.24 15.96 12.1875C16.035 12.1125 16.0575 12.0075 16.0275 11.91L15.7125 10.875Z" fill="white"/>
</svg>
