<svg width="14" height="16" viewBox="0 0 14 16" fill="none" xmlns="http://www.w3.org/2000/svg">
<path d="M5.10244 3.10594L5.56131 4.38024C5.81309 5.07882 6.21587 5.71327 6.74095 6.23835C7.26603 6.76343 7.90048 7.16621 8.59906 7.41799L9.87337 7.87686C9.89853 7.88608 9.92025 7.90281 9.9356 7.92479C9.95094 7.94676 9.95917 7.97291 9.95917 7.99971C9.95917 8.02652 9.95094 8.05267 9.9356 8.07464C9.92025 8.09662 9.89853 8.11335 9.87337 8.12257L8.59906 8.58144C7.90048 8.83322 7.26603 9.236 6.74095 9.76108C6.21587 10.2862 5.81309 10.9206 5.56131 11.6192L5.10244 12.8935C5.09322 12.9187 5.07649 12.9404 5.05451 12.9557C5.03254 12.9711 5.00639 12.9793 4.97959 12.9793C4.95279 12.9793 4.92663 12.9711 4.90466 12.9557C4.88268 12.9404 4.86595 12.9187 4.85673 12.8935L4.39786 11.6192C4.14608 10.9206 3.7433 10.2862 3.21822 9.76108C2.69314 9.236 2.0587 8.83322 1.36011 8.58144L0.085806 8.12257C0.0606435 8.11335 0.038921 8.09662 0.0235751 8.07464C0.00822925 8.05267 0 8.02652 0 7.99971C0 7.97291 0.00822925 7.94676 0.0235751 7.92479C0.038921 7.90281 0.0606435 7.88608 0.085806 7.87686L1.36011 7.41799C2.0587 7.16621 2.69314 6.76343 3.21822 6.23835C3.7433 5.71327 4.14608 5.07882 4.39786 4.38024L4.85673 3.10594C4.8657 3.08052 4.88233 3.05851 4.90434 3.04294C4.92634 3.02737 4.95263 3.01901 4.97959 3.01901C5.00654 3.01901 5.03283 3.02737 5.05484 3.04294C5.07684 3.05851 5.09347 3.08052 5.10244 3.10594ZM10.8385 0.0436084L11.0711 0.68876C11.1987 1.04246 11.4027 1.36369 11.6686 1.62957C11.9345 1.89546 12.2557 2.09946 12.6094 2.22707L13.2546 2.45964C13.2673 2.46429 13.2784 2.47277 13.2862 2.48391C13.294 2.49505 13.2982 2.50833 13.2982 2.52193C13.2982 2.53553 13.294 2.5488 13.2862 2.55994C13.2784 2.57109 13.2673 2.57956 13.2546 2.58421L12.6094 2.81679C12.2557 2.94439 11.9345 3.1484 11.6686 3.41428C11.4027 3.68017 11.1987 4.00139 11.0711 4.35509L10.8385 5.00025C10.8339 5.01303 10.8254 5.02407 10.8143 5.03187C10.8031 5.03967 10.7898 5.04385 10.7762 5.04385C10.7626 5.04385 10.7494 5.03967 10.7382 5.03187C10.7271 5.02407 10.7186 5.01303 10.7139 5.00025L10.4814 4.35509C10.3538 4.00139 10.1498 3.68017 9.88388 3.41428C9.618 3.1484 9.29677 2.94439 8.94307 2.81679L8.29792 2.58421C8.28513 2.57956 8.27409 2.57109 8.26629 2.55994C8.25849 2.5488 8.25431 2.53553 8.25431 2.52193C8.25431 2.50833 8.25849 2.49505 8.26629 2.48391C8.27409 2.47277 8.28513 2.46429 8.29792 2.45964L8.94307 2.22707C9.29677 2.09946 9.618 1.89546 9.88388 1.62957C10.1498 1.36369 10.3538 1.04246 10.4814 0.68876L10.7139 0.0436084C10.7186 0.0308272 10.7271 0.019787 10.7382 0.0119858C10.7494 0.00418458 10.7626 0 10.7762 0C10.7898 0 10.8031 0.00418458 10.8143 0.0119858C10.8254 0.019787 10.8339 0.0308272 10.8385 0.0436084ZM10.8385 10.9998L11.0711 11.6449C11.1987 11.9986 11.4027 12.3198 11.6686 12.5857C11.9345 12.8516 12.2557 13.0556 12.6094 13.1832L13.2546 13.4158C13.2673 13.4204 13.2784 13.4289 13.2862 13.4401C13.294 13.4512 13.2982 13.4645 13.2982 13.4781C13.2982 13.4917 13.294 13.5049 13.2862 13.5161C13.2784 13.5272 13.2673 13.5357 13.2546 13.5404L12.6094 13.7729C12.2557 13.9005 11.9345 14.1045 11.6686 14.3704C11.4027 14.6363 11.1987 14.9575 11.0711 15.3112L10.8385 15.9564C10.8339 15.9692 10.8254 15.9802 10.8143 15.988C10.8031 15.9958 10.7898 16 10.7762 16C10.7626 16 10.7494 15.9958 10.7382 15.988C10.7271 15.9802 10.7186 15.9692 10.7139 15.9564L10.4814 15.3112C10.3538 14.9575 10.1498 14.6363 9.88388 14.3704C9.618 14.1045 9.29677 13.9005 8.94307 13.7729L8.29792 13.5404C8.28513 13.5357 8.27409 13.5272 8.26629 13.5161C8.25849 13.5049 8.25431 13.4917 8.25431 13.4781C8.25431 13.4645 8.25849 13.4512 8.26629 13.4401C8.27409 13.4289 8.28513 13.4204 8.29792 13.4158L8.94307 13.1832C9.29677 13.0556 9.618 12.8516 9.88388 12.5857C10.1498 12.3198 10.3538 11.9986 10.4814 11.6449L10.7139 10.9998C10.7351 10.9415 10.818 10.9415 10.8385 10.9998Z" fill="white"/>
</svg>
