<svg width="220" height="194" viewBox="0 0 220 194" fill="none" xmlns="http://www.w3.org/2000/svg">
<rect x="77.7737" y="2" width="143.503" height="173.571" rx="12" transform="rotate(7.64975 77.7737 2)" fill="#A9AEB1"/>
<rect y="21.1338" width="143.503" height="173.571" rx="12" transform="rotate(-7.65 0 21.1338)" fill="#A9AEB1"/>
<rect x="31.4248" y="1" width="157.151" height="189.658" rx="13" fill="#010101" stroke="#1A1C29" stroke-width="2"/>
<path d="M122.131 84.0819L109.869 90.3114L96.9508 83.6885L70.6558 99.3606L82.8525 106.377V135.426L109.869 121.066L136.492 135.426V106.377L149.344 98.9672L122.131 84.0819Z" fill="#F3FCFF"/>
<path d="M82.8525 136.082C82.7213 136.082 82.5902 136.082 82.5246 136.016C82.3279 135.885 82.1967 135.688 82.1967 135.426V106.705L70.3279 99.8852C70.1311 99.8197 70 99.5574 70 99.3606C70 99.1639 70.1311 98.9016 70.3279 98.7705L96.6229 83.0984C96.8197 82.9672 97.082 82.9672 97.2787 83.0984L109.934 89.5902L121.803 83.4918C122 83.3607 122.197 83.4262 122.393 83.4918L149.607 98.377C149.803 98.5082 149.934 98.7049 149.934 98.9672C149.934 99.2295 149.803 99.4262 149.607 99.5574L137.082 106.77V135.492C137.082 135.754 136.951 135.951 136.754 136.082C136.557 136.213 136.295 136.213 136.098 136.082L109.869 121.787L83.1803 136.016C83.0492 136.082 82.9836 136.082 82.8525 136.082ZM71.9672 99.3606L83.1803 105.787C83.377 105.918 83.5082 106.115 83.5082 106.377V134.377L109.541 120.475C109.738 120.344 110 120.344 110.131 120.475L135.77 134.377V106.377C135.77 106.115 135.902 105.918 136.098 105.787L148.033 98.9672L122.066 84.8689L110.656 90.6393C110.656 90.7049 110.59 90.7049 110.59 90.7705C110.393 91.0984 110 91.1639 109.672 90.9672L109.541 90.8361H109.475L96.9508 84.4098L71.9672 99.3606Z" fill="#6A576D"/>
<path d="M109.869 90.3115L136.492 106.377V135.426L109.869 121.066V90.3115Z" fill="#A9AEB1"/>
<path d="M109.869 90.3115L82.8523 106.377V135.426L109.869 121.066V90.3115Z" fill="#A9AEB1"/>
<path d="M136.492 136.082C136.361 136.082 136.295 136.082 136.164 136.016L109.541 121.59C109.344 121.459 109.213 121.262 109.213 121V90.3116C109.213 90.0493 109.344 89.8526 109.541 89.7214C109.738 89.5903 110 89.5903 110.197 89.7214L136.82 105.787C137.016 105.918 137.148 106.115 137.148 106.377V135.492C137.148 135.754 137.016 135.951 136.82 136.082H136.492ZM110.525 120.672L135.836 134.377V106.705L110.525 91.4919V120.672Z" fill="#6A576D"/>
<path d="M82.8525 136.082C82.7214 136.082 82.5902 136.082 82.5246 136.016C82.3279 135.885 82.1968 135.689 82.1968 135.426V106.377C82.1968 106.115 82.3279 105.918 82.5246 105.787L109.541 89.7214C109.738 89.5903 110 89.5903 110.197 89.7214C110.393 89.8526 110.525 90.0493 110.525 90.3116V121.066C110.525 121.328 110.393 121.525 110.197 121.656L83.1804 136.082H82.8525ZM83.5083 106.705V134.377L109.213 120.672V91.4919L83.5083 106.705Z" fill="#6A576D"/>
<path d="M109.869 120.738L98.5244 116.279L82.8523 106.312V135.426L109.869 151.492L136.492 135.426V106.312L124.492 115.23L109.869 120.738Z" fill="#A9AEB1"/>
<path d="M109.869 152.148C109.738 152.148 109.607 152.148 109.541 152.082L82.5246 136.016C82.3279 135.885 82.1968 135.689 82.1968 135.426V106.312C82.1968 106.049 82.3279 105.853 82.5246 105.721C82.7214 105.59 82.9837 105.59 83.1804 105.721L98.8525 115.689L109.934 120.082L124.23 114.639L136.098 105.787C136.295 105.656 136.557 105.59 136.754 105.721C136.951 105.853 137.082 106.049 137.082 106.312V135.426C137.082 135.689 136.951 135.885 136.754 136.016L110.131 152.082C110.131 152.082 110 152.148 109.869 152.148ZM83.5083 135.098L109.869 150.771L135.836 135.098V107.623L124.885 115.754C124.82 115.82 124.754 115.82 124.754 115.82L110.131 121.394C110 121.459 109.803 121.459 109.672 121.394L98.3279 116.935C98.2623 116.935 98.2623 116.869 98.1968 116.869L83.5083 107.557V135.098Z" fill="#6A576D"/>
<path d="M109.869 151.492L136.492 135.426V106.312L122.59 116.213L109.869 120.738V151.492Z" fill="#A9AEB1"/>
<path d="M109.869 152.148C109.738 152.148 109.672 152.148 109.541 152.082C109.344 151.951 109.213 151.755 109.213 151.492V120.738C109.213 120.476 109.41 120.214 109.672 120.148L122.328 115.623L136.098 105.787C136.295 105.656 136.557 105.656 136.754 105.722C136.951 105.853 137.082 106.05 137.082 106.312V135.427C137.082 135.689 136.951 135.886 136.754 136.017L110.131 152.082C110.131 152.082 110 152.148 109.869 152.148ZM110.525 121.197V150.312L135.836 135.099V107.623L122.984 116.738C122.918 116.804 122.852 116.804 122.852 116.804L110.525 121.197Z" fill="#6A576D"/>
<path d="M87.3029 125.614L109.169 137.557V121.218L96.6742 117.149L81.1912 106.781L87.3029 125.614Z" fill="#A9AEB1"/>
<path d="M70.6558 113.328L82.8525 106.312L109.869 120.738L96.8853 128.148L70.6558 113.328Z" fill="#F3FCFF"/>
<path d="M121.501 132.451L135.836 125.059V106.414L124.172 115.05L109.577 120.61L109.382 120.741L121.501 132.451Z" fill="#A9AEB1"/>
<path d="M109.869 120.738L122.065 127.754L149.344 113.721L136.492 106.377L109.869 120.738Z" fill="#F3FCFF"/>
<path d="M96.8852 128.803C96.7541 128.803 96.6885 128.803 96.5574 128.738L70.3279 113.918C70.1311 113.787 70 113.59 70 113.328C70 113.066 70.1311 112.869 70.3279 112.738L82.5246 105.787C82.7213 105.656 82.9836 105.656 83.1803 105.787L110.197 120.213C110.393 120.344 110.525 120.541 110.525 120.803C110.525 121.066 110.393 121.262 110.197 121.393L97.2131 128.738C97.1475 128.803 97.0164 128.803 96.8852 128.803ZM71.9672 113.328L96.8852 127.426L108.492 120.803L82.8525 107.098L71.9672 113.328Z" fill="#6A576D"/>
<path d="M122.066 128.41C121.934 128.41 121.869 128.41 121.738 128.344L109.541 121.328C109.344 121.197 109.213 121 109.213 120.738C109.213 120.476 109.344 120.279 109.541 120.148L136.164 105.721C136.361 105.59 136.623 105.59 136.82 105.721L149.672 113.131C149.869 113.262 150 113.459 150 113.721C150 113.984 149.869 114.18 149.672 114.312L122.393 128.344C122.262 128.41 122.197 128.41 122.066 128.41ZM111.246 120.738L122.131 126.967L148.033 113.656L136.426 107.098L111.246 120.738Z" fill="#6A576D"/>
</svg>
