<svg width="16" height="16" viewBox="0 0 16 16" fill="none" xmlns="http://www.w3.org/2000/svg">
<path d="M7.44165 10.2324V2.06712L6.19109 3.52611C5.99048 3.76011 5.63792 3.78717 5.4039 3.58658C5.1699 3.38597 5.14284 3.0334 5.34343 2.79938L7.57595 0.194765L7.6181 0.15087C7.72098 0.0544452 7.85727 0 7.99978 0C8.16269 0 8.31757 0.0710866 8.42361 0.194765L10.6561 2.79938L10.691 2.84473C10.8525 3.077 10.815 3.39851 10.5957 3.58658C10.3763 3.77463 10.0529 3.76242 9.848 3.56739L9.80847 3.52611L8.55791 2.06712V10.2324C8.55791 10.5407 8.30803 10.7905 7.99978 10.7905C7.69153 10.7905 7.44165 10.5407 7.44165 10.2324Z" fill="#F3FCFF"/>
<path d="M14.8834 10.9771V10.233C14.8834 9.16478 14.8823 8.41953 14.8067 7.85742C14.7333 7.3115 14.599 7.0224 14.3931 6.81645C14.2119 6.63528 13.9677 6.51079 13.546 6.43331C13.163 6.36296 12.6734 6.33801 12.012 6.32983L11.7175 6.32721L11.6605 6.32401C11.3793 6.29386 11.161 6.05485 11.1626 5.76588C11.1644 5.45768 11.4157 5.20923 11.7239 5.21095L12.0193 5.21356C12.6943 5.22163 13.2678 5.24728 13.7474 5.33536C14.3115 5.43897 14.7917 5.63633 15.1823 6.02692C15.6302 6.47486 15.823 7.03904 15.9131 7.70888C16.001 8.36264 15.9997 9.19639 15.9997 10.233V10.9771C15.9997 12.0136 16.001 12.8472 15.9131 13.5009C15.823 14.1708 15.6302 14.735 15.1823 15.1829C14.7344 15.6308 14.1704 15.8234 13.5006 15.9134C12.8468 16.0013 12.0132 16.0003 10.9765 16.0003H5.02316C4.71497 16.0003 4.46511 15.7504 4.46504 15.4422C4.46504 15.134 4.71492 14.8841 5.02316 14.8841H10.9765C12.0447 14.8841 12.7897 14.8826 13.3518 14.807C13.8978 14.7336 14.1871 14.5993 14.3931 14.3934C14.599 14.1875 14.7333 13.8984 14.8067 13.3524C14.8823 12.7903 14.8834 12.0453 14.8834 10.9771ZM9.77088e-07 10.9771V10.233C9.77088e-07 9.19639 -0.00125819 8.36264 0.0866273 7.70888C0.176685 7.03904 0.369505 6.47486 0.817428 6.02692C1.20802 5.63637 1.68801 5.43898 2.25199 5.33536C2.8001 5.23468 3.47099 5.21543 4.27579 5.21095C4.58401 5.20923 4.83536 5.45768 4.83712 5.76588C4.83884 6.07409 4.59039 6.32545 4.28219 6.32721C3.46844 6.33174 2.89149 6.3529 2.45373 6.43331C2.03197 6.51079 1.78782 6.63529 1.60666 6.81645C1.40075 7.0224 1.26641 7.3115 1.193 7.85742C1.11743 8.41953 1.11626 9.16478 1.11626 10.233V10.9771C1.11626 12.0453 1.11743 12.7903 1.193 13.3524C1.26641 13.8984 1.40075 14.1875 1.60666 14.3934C1.75033 14.5371 1.93061 14.6421 2.1988 14.7181C2.4953 14.8022 2.66743 15.1108 2.58338 15.4073C2.49932 15.7039 2.19071 15.8762 1.89415 15.7922C1.4787 15.6744 1.11992 15.4854 0.817428 15.1829C0.369478 14.735 0.176683 14.1708 0.0866273 13.5009C-0.0012491 12.8472 8.70923e-07 12.0136 9.77088e-07 10.9771Z" fill="#F3FCFF"/>
</svg>
